<?xml version="1.0" encoding="UTF-8" standalone="no"?>
<!-- Created with Inkscape (http://www.inkscape.org/) -->

<svg
   version="1.1"
   id="svg2"
   width="318"
   height="364"
   viewBox="0 0 318 364"
   sodipodi:docname="logo_4.svg"
   inkscape:version="1.2.2 (732a01da63, 2022-12-09)"
   xmlns:inkscape="http://www.inkscape.org/namespaces/inkscape"
   xmlns:sodipodi="http://sodipodi.sourceforge.net/DTD/sodipodi-0.dtd"
   xmlns="http://www.w3.org/2000/svg"
   xmlns:svg="http://www.w3.org/2000/svg">
  <defs
     id="defs6" />
  <sodipodi:namedview
     id="namedview4"
     pagecolor="#ffffff"
     bordercolor="#000000"
     borderopacity="0.25"
     inkscape:showpageshadow="2"
     inkscape:pageopacity="0.0"
     inkscape:pagecheckerboard="0"
     inkscape:deskcolor="#d1d1d1"
     showgrid="false"
     inkscape:zoom="2.2774725"
     inkscape:cx="88.25573"
     inkscape:cy="182.21954"
     inkscape:window-width="1920"
     inkscape:window-height="1009"
     inkscape:window-x="-8"
     inkscape:window-y="-8"
     inkscape:window-maximized="1"
     inkscape:current-layer="g8" />
  <g
     inkscape:groupmode="layer"
     inkscape:label="Image"
     id="g8">
    <path
       style="fill:#ffffff"
       d="M 84.230998,305.40631 C 62.319948,300.66489 48.938278,286.87582 44.048068,264 c -1.66377,-7.78288 -1.81707,-14.78538 -1.81707,-83 0,-68.36899 0.14887,-75.13435 1.8089,-82.208142 3.71479,-15.829599 11.77379,-26.865619 23.815,-32.612363 13.83933,-6.604902 12.35862,-6.488405 87.895302,-6.915241 76.3864,-0.431636 76.84476,-0.400297 90.7541,6.205221 13.98868,6.643193 23.01246,18.550326 26.99799,35.624585 1.55543,6.66359 1.72871,14.77341 1.72871,80.90594 0,82.81521 0.12361,81.22708 -7.53028,96.75162 -7.04336,14.28619 -17.0752,22.03245 -33.55728,25.91185 -10.197,2.40007 -139.297792,3.03979 -149.912442,0.74284 z M 218.65291,290.02273 c 14.36509,-1.18817 20.87184,-3.20881 26.61681,-8.26573 5.94231,-5.23063 9.05468,-10.76833 11.51065,-20.48038 1.95674,-7.73786 2.01404,-10.4686 1.71838,-81.8907 -0.27776,-67.0967 -0.46593,-74.35978 -2.0479,-79.04283 -3.8056,-11.265603 -12.33111,-19.6144 -23.5886,-23.099676 -5.11829,-1.584604 -11.73436,-1.743217 -72.63125,-1.741247 -72.220432,0.0023 -73.603452,0.08956 -84.354962,5.320027 -6.47613,3.150557 -11.35742,8.612501 -14.38704,16.098464 l -2.258,5.579342 -0.30819,75.5 c -0.22059,54.03972 0.0195,77.20545 0.84467,81.5 1.45118,7.55256 5.28173,15.73957 9.60131,20.52084 3.88711,4.30256 12.74835,8.56868 20.45525,9.84789 7.30153,1.21193 114.489232,1.34005 128.828872,0.154 z M 106.64954,253.25 c -0.0448,-0.4125 -0.0903,-14.60709 -0.10122,-31.54354 l -0.0198,-30.79354 40.53496,0.0645 c 43.86817,0.0698 44.89363,0.18016 52.50155,5.64883 22.55731,16.2145 14.27845,51.34852 -13.26773,56.30588 -6.74024,1.21301 -79.51903,1.50345 -79.6478,0.31785 z m -0.11986,-71.94858 C 106.31907,180.86064 106.16571,165.875 106.18888,148 l 0.0421,-32.5 33.5,-0.14899 c 37.19899,-0.16545 45.41106,0.42626 52.59638,3.78972 6.23369,2.91801 13.27016,9.93233 16.41093,16.35927 3.5903,7.3468 3.54142,19.76409 -0.10842,27.54563 -3.57515,7.62229 -7.71863,12.02941 -14.57695,15.50445 l -5.82194,2.94992 -40.6592,0.30142 c -22.36256,0.16579 -40.83152,-0.0592 -41.04212,-0.5 z"
       id="path170" />
  </g>
</svg>
