<?xml version="1.0" encoding="UTF-8" standalone="no"?>
<!-- Created with Inkscape (http://www.inkscape.org/) -->

<svg
   version="1.1"
   id="svg2"
   width="612"
   height="408"
   viewBox="0 0 612 408"
   sodipodi:docname="ChatGPT_Image_Sep_13__2025__08_01_46_PM-removebg-preview.svg"
   inkscape:version="1.2.2 (732a01da63, 2022-12-09)"
   xmlns:inkscape="http://www.inkscape.org/namespaces/inkscape"
   xmlns:sodipodi="http://sodipodi.sourceforge.net/DTD/sodipodi-0.dtd"
   xmlns="http://www.w3.org/2000/svg"
   xmlns:svg="http://www.w3.org/2000/svg">
  <defs
     id="defs6" />
  <sodipodi:namedview
     id="namedview4"
     pagecolor="#ffffff"
     bordercolor="#000000"
     borderopacity="0.25"
     inkscape:showpageshadow="2"
     inkscape:pageopacity="0.0"
     inkscape:pagecheckerboard="0"
     inkscape:deskcolor="#d1d1d1"
     showgrid="false"
     inkscape:zoom="1.9705882"
     inkscape:cx="181.67164"
     inkscape:cy="204"
     inkscape:window-width="1920"
     inkscape:window-height="1009"
     inkscape:window-x="-8"
     inkscape:window-y="-8"
     inkscape:window-maximized="1"
     inkscape:current-layer="g8" />
  <g
     inkscape:groupmode="layer"
     inkscape:label="Image"
     id="g8">
    <path
       style="fill:#000000"
       d="m 99.921225,246.04211 c -4.83559,-2.19593 -8.75143,-6.99044 -10.28013,-12.58688 -0.68364,-2.50274 -1.09471,-15.99816 -1.0982,-36.05366 l -0.006,-32.05365 2.49679,-5.0104 c 4.09855,-8.22472 7.49004,-9.53899 27.444775,-10.63539 22.48228,-1.23527 44.35451,-0.49126 49.55843,1.6858 5.46031,2.28432 9.12778,6.03509 11.23225,11.48738 1.55599,4.03129 1.76775,8.35329 1.76775,36.07992 0,31.04603 -0.0343,31.57599 -2.38307,36.77308 -2.75059,6.08629 -6.61083,9.71453 -11.89798,11.18291 -2.1784,0.605 -15.93916,1.02607 -33.21895,1.01647 -26.65579,-0.0148 -29.89685,-0.1966 -33.616085,-1.88558 z m 67.444665,-6.4032 c 2.0597,-1.12392 4.05268,-3.41118 5.22804,-6 1.73298,-3.817 1.89946,-6.85689 1.89946,-34.68368 0,-28.09553 -0.15361,-30.83845 -1.94847,-34.79315 -1.53289,-3.3775 -2.91944,-4.72266 -6.50105,-6.30697 -4.27298,-1.89014 -6.2862,-1.99497 -32.77957,-1.70685 -26.34447,0.2865 -28.46041,0.44372 -31.72699,2.35742 -6.396375,3.74728 -6.499995,4.38416 -6.499995,39.94955 0,29.56955 0.14614,32.29445 1.92414,35.87686 1.32742,2.67455 3.188145,4.46022 5.999995,5.75793 3.73445,1.72351 6.46312,1.85947 32.57586,1.62314 25.34633,-0.22939 28.86832,-0.45891 31.82858,-2.07425 z m -53.82858,-25.18368 v -12.5 h 16.2656 c 18.41099,0 21.60569,0.90576 24.90713,7.06166 2.20409,4.10977 2.2719,5.93842 0.38745,10.44856 -2.73558,6.54716 -5.83318,7.48181 -24.81018,7.48604 l -16.75,0.004 z m 0.75,-16.05057 c -0.4125,-0.43052 -0.75,-6.55776 -0.75,-13.6161 v -12.83333 h 15.59887 c 17.50578,0 21.18869,0.96446 24.51545,6.41996 3.63374,5.95892 1.42557,15.61518 -4.26761,18.66208 -2.58721,1.38463 -33.91088,2.60502 -35.09671,1.36739 z m 195.25,24.65739 c -3.92907,-1.39336 -6.79851,-3.35753 -10.04621,-6.87676 -5.27207,-5.71284 -6.95379,-10.41338 -6.95379,-19.43636 0,-8.85144 4.17892,-17.39899 10.57899,-21.63822 14.74351,-9.7657 34.88963,-4.65366 41.61977,10.56094 2.37475,5.36851 2.5361,15.55505 0.35061,22.13495 -4.37755,13.17955 -21.13051,20.36882 -35.54937,15.25545 z m 18.01017,-11.35682 c 5.35318,-3.64334 7.32065,-7.08205 7.71641,-13.48656 0.28526,-4.6162 -0.10078,-6.55966 -1.93933,-9.76344 -2.48004,-4.32161 -9.25752,-8.5 -13.78725,-8.5 -3.62098,0 -11.01009,3.98814 -13.35575,7.20853 -2.82818,3.88285 -3.39397,12.80249 -1.13048,17.822 2.66419,5.90812 7.38712,8.7892 14.58835,8.89918 3.21278,0.0491 5.60014,-0.60896 7.90805,-2.17971 z m 44.79304,11.9056 c -11.16771,-3.13718 -17.7006,-11.42913 -18.55884,-23.55602 -0.8319,-11.75485 3.7754,-21.67599 12.42803,-26.76195 4.27981,-2.51565 5.79209,-2.83763 13.3276,-2.83763 9.39521,0 15.44497,2.22369 20.55191,7.55418 l 2.61813,2.73275 -4.71741,3.24566 c -4.14583,2.85241 -4.82772,3.04855 -5.62785,1.6188 -2.10192,-3.75592 -10.42647,-6.0797 -16.2328,-4.53134 -7.91441,2.11051 -12.52335,10.18344 -11.12761,19.49091 1.81832,12.12543 16.62949,17.5136 25.86118,9.40807 l 3.28278,-2.88232 4.31763,3.41666 4.31763,3.41666 -3.37179,3.16931 c -6.78964,6.38188 -17.96778,9.07281 -27.06859,6.51626 z m -167.96285,-1.9056 c -0.36924,-2.11507 -0.37314,-28.98204 -0.006,-44.08975 l 0.16564,-6.83975 15.33039,0.33975 c 14.97897,0.33196 15.41376,0.40339 18.96773,3.11603 6.73175,5.13815 7.50816,15.38252 1.52095,20.06822 -3.10224,2.42786 -3.10351,2.43291 -0.90931,3.6072 5.738,3.07089 7.81557,12.70617 4.06584,18.85644 -3.49511,5.73266 -8.34133,7.14462 -24.60902,7.1699 -13.88169,0.0216 -14.14042,-0.0181 -14.52622,-2.22804 z m 27.14303,-8.036 c 1.36587,-0.69108 2.93171,-2.53128 3.47965,-4.08934 0.87482,-2.48754 0.65674,-3.12488 -1.78916,-5.22875 -2.43334,-2.09307 -3.78954,-2.39591 -10.72964,-2.39591 h -7.94424 v 5.83333 c 0,3.20834 0.3,6.13334 0.66667,6.5 1.16515,1.16515 13.73264,0.68813 16.31672,-0.61933 z m 0.0308,-22.52443 c 2.6669,-2.15952 2.95598,-6.64794 0.58113,-9.02279 -1.18613,-1.18613 -3.91147,-1.75713 -9.625,-2.0166 l -7.97032,-0.36195 v 6.60588 6.60589 h 7.38922 c 5.64134,0 7.91807,-0.42825 9.625,-1.81043 z m 22.98581,6.31043 v -26.5 h 4.98011 4.98011 l 0.26989,21.25 0.26989,21.25 12.25,0.28078 12.25,0.28078 v 4.96922 4.96922 h -17.5 -17.5 z m 155,0 v -26.5 h 5 5 v 11 c 0,6.05 0.3375,10.98702 0.75,10.97115 0.4125,-0.0159 5.00103,-4.96587 10.19674,-11 l 9.44674,-10.97115 h 6.87535 6.87536 l -10.15565,11.06107 c -5.74372,6.25579 -9.93414,11.63831 -9.64577,12.3898 0.28044,0.7308 4.62619,7.05291 9.65723,14.04913 5.03104,6.99622 9.38734,13.34581 9.68066,14.1102 0.41874,1.09121 -0.75542,1.3898 -5.46518,1.3898 h -5.9985 l -7.8453,-11.46664 -7.8453,-11.46664 -3.26319,3.16281 c -3.16835,3.07088 -3.26319,3.40415 -3.26319,11.46664 v 8.30383 h -5 -5 z"
       id="path170" />
  </g>
</svg>
